<?xml version="1.0" encoding="UTF-8"?><svg id="Color" xmlns="http://www.w3.org/2000/svg" xmlns:xlink="http://www.w3.org/1999/xlink" viewBox="0 0 609.11 600.43"><defs><style>.cls-1{fill:#fff;}.cls-2{clip-path:url(#clippath);}.cls-3{fill:none;}.cls-4{fill:url(#linear-gradient);}.cls-5{fill:#052642;}</style><clipPath id="clippath"><path class="cls-3" d="m322.67,234.76c-.01-2.03.11-4.05.38-6.01.53-3.96,1.42-5.71,5.09-10.16,9.3-11.29,14.5-26.07,14.43-39.85-.02-5.54-.94-10.91-2.8-15.81-1.79-4.71-4.48-8.94-8.13-12.38-13.98-13.19-44.78-13.71-58.65-.14-3.44,3.36-5.91,7.4-7.51,11.85-1.69,4.69-2.47,9.88-2.44,15.27.07,14.32,5.83,29.76,15.63,41.15,3.89,4.53,4.89,6.86,5.32,10.08.26,1.96.39,3.97.37,6-.19,28.18-32.06,60.75-60.17,59.52-3.04-.14-6.01-.59-8.85-1.35,1.05,3.67,2.74,7.36,4.93,10.87.95,1.53,2,3.01,3.14,4.45,8.56-.8,17.24-3.27,25.37-7.54,12.55-6.57,23.81-17.45,31.33-33.16,1.72-3.57,6-5.09,9.58-3.37,3.57,1.7,5.09,6,3.37,9.57-8.97,18.73-22.51,31.78-37.63,39.71-5.82,3.04-11.87,5.32-17.98,6.89,4.63,2.61,9.71,4.34,14.99,4.84,14.69,1.37,31.6-6.82,46.58-32.24.35-.61.77-1.16,1.28-1.65l.03-.03.11-.09.02-.03.1-.09.04-.03.04-.03.1-.08h0s.1-.08.1-.08l.04-.04h.02c.28-.23.58-.42.9-.6h0s.16-.09.16-.09l.05-.02.11-.06.05-.02h.02c.9-.44,1.84-.66,2.79-.7h.01s.04,0,.04,0h.52c.9.04,1.81.24,2.66.62h.01s.04.02.04.02l.12.06.04.02h0c.7.35,1.34.8,1.89,1.35l.03.02.02.02.09.1.04.03.09.1.02.04h.01c.32.37.61.77.85,1.16l.04.07h0c14.9,25.28,31.43,33.57,45.68,32.37,5.31-.44,10.38-2.19,14.95-4.83-6.29-1.56-12.5-3.89-18.46-7-15.14-7.93-28.67-20.97-37.66-39.71-1.7-3.58-.19-7.87,3.39-9.57,3.58-1.72,7.87-.2,9.58,3.37,7.53,15.71,18.79,26.59,31.34,33.16,8.14,4.27,16.85,6.75,25.44,7.54.91-1.21,1.75-2.45,2.54-3.73,2.37-3.88,4.14-8,5.12-12.11-3.37,1.06-6.93,1.7-10.61,1.87-28.11,1.22-59.96-31.33-60.15-59.52m80.05-66.67c-.25.08-.48.17-.72.29l-.08.05c-.14.06-.26.14-.39.21l-.08.06-.17.11h-.01s-.05.04-.05.04l-.04.03-.08.06-.09.07h0l-.08.07c-.11.09-.21.19-.32.28l-.08.08-.02.02-.05.06-.04.04-.04.04c-.08.08-.15.17-.21.25l-.02.02-.05.06-.03.04-.04.04-.05.06-.03.02-.05.09h-.01s-.06.1-.06.1h0s-.05.08-.05.08l-.03.04-.04.06-.04.06-.03.04-.05.08h0s-.05.1-.05.1h-.01s-.04.09-.04.09l-.03.04-.04.06-.03.06v.04s-.05.09-.05.09h-.01s-.05.11-.05.11h0s-.04.1-.04.1v.04s-.04.06-.04.06l-.02.07v.04s-.05.09-.05.09v.02l-.04.1h0s-.04.11-.04.11v.03l-.03.07-.02.11-.03.09v.02l-.03.1h0s-.02.11-.02.11v.11s-.01.01-.01.01l-.03.1v.09s0,.02,0,.02v.11s-.01,0-.01,0v.11s-.01.03-.01.03v.14s-.01.05-.01.05v.52h0s.01.12.01.12v.09s.01.08.01.08v.12s.01.01.01.01v.09s.02.06.02.06v.04l.03.09v.1s.02.04.02.04v.06s.03.08.03.08h0s.03.11.03.11v.03s.02.06.02.06l.03.07v.03l.02.09v.02s.04.07.04.07v.06s.02.03.02.03l.04.09h0s.04.09.04.09v.04s.06.12.06.12h0s.05.1.05.1v.02s.04.06.04.06l.03.06v.02s.05.08.05.08h.01v.03l.06.09h0s.01.04.01.04l.05.09.05.08.03.03.02.05.05.07h0s.08.11.08.11l.04.06.04.06v.02s.06.08.06.08h.01s.05.07.05.07l.04.05.03.03.05.07h0s.06.08.06.08l.02.03.04.04.11.12v.02s.04.02.04.02l.17.17h.01s.06.07.06.07h.01s.05.06.05.06l.08.06h0s.08.06.08.06l.02.03.05.03.06.06h0s.09.06.09.06v.02s.04.01.04.01l.09.07h.02s.08.06.08.06h.01s.06.06.06.06l.05.03.04.02.08.05h0l.09.05.04.02.04.03.08.04h.01l.08.04c.76.39,1.63.62,2.56.62,3.06,0,5.56-2.49,5.56-5.56s-2.5-5.56-5.56-5.56c-.61,0-1.19.09-1.72.27Zm4.73,55.54l.04.02.04.02.04.02h0s.04.02.04.02l.04.02.04.02h.01s.02.02.02.02l.04.02.04.02h.03s.01.02.01.02h.04s.05.03.05.03h.03s0,.02,0,.02l.08.03.04.02h.04s.04.03.04.03l.05.02h.01l.03.02h.04s.05.02.05.02h.01s.03.01.03.01h.04s.04.02.04.02h.03s.03.02.03.02h.04s.08.03.08.03h.05s.04.02.04.02h.05s.04.02.04.02h.04s.05.02.05.02h.04s.05.02.05.02h.04s.01.01.01.01h.03s.08.02.08.02h.03s.02.01.02.01h.04s.05.01.05.01h.04s.05.01.05.01h.04s.05.01.05.01h.08s.05.01.05.01h.04s.05.01.05.01h.05s.04,0,.04,0h.08s.03,0,.03,0h.15s.05,0,.05,0h.09c3.08,0,5.56-2.49,5.56-5.56v-.14h0v-.13h0v-.05s-.01-.02-.01-.02v-.08h0v-.05s-.01-.02-.01-.02v-.12s-.01-.02-.01-.02v-.06s0,0,0,0v-.1s-.01-.02-.01-.02h0v-.05s-.01-.02-.01-.02v-.07s-.01,0-.01,0v-.04s-.01-.02-.01-.02v-.05s0-.02,0-.02v-.05s-.01-.03-.01-.03v-.02s-.01-.02-.01-.02v-.02h0s-.01-.03-.01-.03v-.04s-.02-.02-.02-.02v-.02h0v-.04s-.01-.02-.01-.02v-.02s-.01-.02-.01-.02v-.03s-.01,0-.01,0v-.02c-.66-2.32-2.82-4.02-5.35-4.02-3.06,0-5.56,2.49-5.56,5.56,0,2.11,1.19,3.95,2.92,4.89Zm33.6,57.82h0v.02h0v.02h0v.02h0v.02h0v.03h0v.02h0v.02h0v.02h-.01v.02h0v.02h0v.02h0v.02h0v.02h0v.03h0v.02h0v.02h0v.02h0v.03h0v.02h0v.02h0v.02h0v.02h0v.02c0,3.07,2.48,5.56,5.56,5.56h.25s.04,0,.04,0h.03s.06,0,.06,0h.05s0,0,0,0h.12s.01,0,.01,0h.05s.06-.02.06-.02h.06s.06-.01.06-.01h.04s.02-.01.02-.01h.06s.05-.02.05-.02h.08s.05-.03.05-.03h.06s.06-.02.06-.02h.03s.04-.01.04-.01h.05s.05-.02.05-.02h.01s.06-.02.06-.02l.06-.02h.05s.08-.04.08-.04h.05s.05-.03.05-.03h.04s.02-.02.02-.02l.06-.02h.04s0-.02,0-.02l.06-.02.05-.02h.01s.05-.02.05-.02l.05-.02h.02s.12-.06.12-.06h.01s.06-.03.06-.03l.05-.03h0l.05-.02.05-.02h.03s.04-.02.04-.02l.05-.03h.03s.03-.03.03-.03l.05-.02.05-.02h.01s.05-.04.05-.04l.05-.03h0l.05-.03.05-.03h.01s.04-.03.04-.03l.05-.03.02-.02h.03s.08-.08.08-.08h.01l.04-.04.05-.03h0s.04-.04.04-.04l.05-.04v-.02s.04-.02.04-.02l.05-.04.04-.02h.01c1.22-1.03,2.01-2.57,2.01-4.29,0-3.07-2.5-5.55-5.56-5.55s-5.31,2.24-5.55,5.09Zm-235.9-103.14l.08-.04h.01l.08-.04.04-.03.05-.02.08-.05.08-.05.08-.05h0l.06-.04h.01s.08-.06.08-.06h.01s.06-.06.06-.06h.01s.06-.06.06-.06l.08-.06h0s.06-.06.06-.06h0s.08-.06.08-.06l.06-.06h0s.14-.13.14-.13h.01l.05-.06h0s.06-.08.06-.08l.03-.02.05-.05.04-.04.02-.02.06-.07h.01s.05-.07.05-.07l.06-.07.06-.07h0s.06-.08.06-.08l.02-.03.04-.05.04-.06h.01s.06-.09.06-.09v-.02s.01-.01.01-.01l.07-.1v-.02s.06-.08.06-.08h.01s.04-.08.04-.08l.02-.05.03-.03.05-.08.05-.09v-.03s.04-.05.04-.05l.04-.08h.01s.04-.09.04-.09v-.02s.05-.06.05-.06l.03-.06v-.02s.05-.09.05-.09h0s.04-.09.04-.09v-.05s.04-.04.04-.04l.02-.09h0s.01-.02.01-.02l.04-.11v-.06s.04-.07.04-.07v-.02s.04-.09.04-.09v-.03s.03-.07.03-.07v-.06s.02-.03.02-.03l.03-.09h0s.01-.09.01-.09v-.06s.02-.04.02-.04l.03-.1v-.09s.02-.04.02-.04v-.14s.01-.01.01-.01v-.09s.01-.03.01-.03v-.08s.01-.07.01-.07v-.13s.01-.01.01-.01v-.14s0-.04,0-.04v-.33s0-.05,0-.05v-.14s-.01-.03-.01-.03v-.11s-.01,0-.01,0v-.11s-.01-.02-.01-.02v-.09s-.02-.1-.02-.1h0s-.01-.09-.01-.09v-.03s-.04-.1-.04-.1h0s0-.12,0-.12v-.02s-.04-.09-.04-.09l-.02-.11v-.07s-.03-.03-.03-.03l-.04-.1h0s-.04-.11-.04-.11v-.02l-.04-.09v-.04s-.04-.07-.04-.07l-.03-.06v-.04s-.05-.09-.05-.09h0s-.04-.11-.04-.11h-.01s-.04-.1-.04-.1l-.02-.04-.03-.06-.04-.06v-.04s-.06-.08-.06-.08h0s-.06-.11-.06-.11h0s-.05-.09-.05-.09l-.03-.04-.04-.06-.03-.06-.02-.04-.05-.07h0s-.06-.1-.06-.1h0s-.06-.09-.06-.09l-.03-.02-.04-.06-.04-.04-.04-.04-.05-.06v-.02c-.09-.08-.16-.17-.23-.25l-.04-.04-.03-.04-.06-.06-.03-.02-.07-.08c-.1-.1-.21-.2-.32-.28l-.08-.07h0l-.09-.07-.08-.06-.04-.03-.05-.03h-.01s-.16-.12-.16-.12l-.1-.06c-.12-.08-.25-.15-.37-.21l-.1-.05c-.23-.11-.47-.2-.7-.29-.54-.18-1.12-.27-1.72-.27-3.08,0-5.56,2.49-5.56,5.56s2.48,5.56,5.56,5.56c.91,0,1.79-.23,2.55-.62Zm-13.59,38.89v.02h0s-.01.03-.01.03v.04s-.01.02-.01.02v.02s-.01,0-.01,0h0s0,.04,0,.04v.04s-.01.03-.01.03v.02s-.01,0-.01,0v.06s-.01.03-.01.03v.02s-.01.02-.01.02v.02s0,.02,0,.02v.08s-.01.02-.01.02h0s-.01.03-.01.03v.09s-.01.01-.01.01h0s-.01.04-.01.04v.1h0s0,.02,0,.02v.09s-.01.02-.01.02v.08s-.01.02-.01.02v.04h0v.13s-.01.01-.01.01h0v.14h0v.15c0,3.07,2.48,5.56,5.56,5.56h.17s.05,0,.05,0h.14s.04,0,.04,0h.05s.04,0,.04,0h.05s.04-.01.04-.01h.1s.04-.01.04-.01h.05s.04-.01.04-.01h.05s.04-.01.04-.01h.05s.04-.01.04-.01h.02s.01-.01.01-.01h.09s.04-.02.04-.02h.01s.04-.01.04-.01h.05s.03-.02.03-.02h.05s.05-.02.05-.02h.04s.04-.02.04-.02h.05s.04-.02.04-.02h.01l.08-.03h.04s.01-.01.01-.01h.04s.04-.02.04-.02h.04s.03-.02.03-.02h.01s.05-.02.05-.02h.04s.03-.02.03-.02h.01l.05-.02h.04s.04-.03.04-.03h0l.04-.02.08-.03h0s.03-.02.03-.02l.05-.02h.04s.01-.02.01-.02h.03s.04-.02.04-.02l.04-.02h.02s.01-.02.01-.02l.04-.02.04-.02h.04v-.02l.04-.02.04-.02.04-.02c1.73-.94,2.92-2.77,2.92-4.89,0-3.07-2.5-5.56-5.56-5.56-2.55,0-4.68,1.7-5.35,4.02Zm-32.6,68.99h.01s.04.04.04.04l.04.04.04.02v.02s.06.04.06.04l.04.02h.01s.05.04.05.04l.05.04h0l.11.08.03.02.05.03.04.02h.01s.05.04.05.04l.05.03h0l.05.03.05.03h.01s.05.03.05.03l.07.04h.03s.05.04.05.04l.05.02h.01s.05.03.05.03l.05.02h0l.12.06h0s.12.06.12.06h.03s.05.04.05.04h.05s.01.02.01.02l.05.02.06.02h.01s.1.04.1.04h.03s.04.02.04.02l.05.02h.05s.08.04.08.04h.05s.06.03.06.03h.06s.01.02.01.02h.05s.05.02.05.02h.04s.02.01.02.01h.06s.05.02.05.02h.06s.06.03.06.03h.06s.06.02.06.02h.03s.04.01.04.01h.06s.04.01.04.01h.08s.05.02.05.02h.08s.06,0,.06,0h.06s.06,0,.06,0h.02s.04,0,.04,0h.06s.05,0,.05,0h.14c3.07,0,5.56-2.49,5.56-5.56h0v-.02h0v-.02h0v-.02h0v-.02h0v-.02h0v-.02h0v-.02h0v-.03h0v-.02h0v-.02h0v-.02h0v-.02h0v-.02h0v-.02h0v-.02h0s0-.01,0-.01h0v-.02h0v-.02h0v-.02h0v-.02h0v-.02h0v-.02h0v-.02h0v-.02c-.24-2.85-2.63-5.09-5.55-5.09-3.06,0-5.56,2.48-5.56,5.55,0,1.73.79,3.26,2.01,4.28Zm106.94-60.31c-10.85-13.7-17.16-31.6-17.25-48.3-.04-7.02,1.01-13.87,3.29-20.18,2.36-6.54,5.96-12.44,10.94-17.31,19.39-18.97,59.02-18.5,78.6-.02,5.32,5.02,9.2,11.07,11.74,17.73,2.47,6.47,3.67,13.57,3.71,20.88.08,16.2-5.7,33.47-16.1,47.06-3.41,4.45-4,3.81-3.78,9.93.17,4.54,1.36,9.2,3.44,13.29,1.01,1.65,2.03,3.22,3.05,4.72,2.57,3.15,5.85,5.51,9.76,6.47,1.39.34,2.86.52,4.41.5,3.26-.02,5.95-.43,8.14-1.17,2.58-.87,4.33-2.2,5.37-3.87,1.16-1.83,1.67-4.21,1.66-6.94-.03-3.08-.72-6.54-1.94-10.17-1.25-3.68-2.94-6.77-4.57-9.73-3.49-6.39-6.74-12.31-7.05-23.48-.05-1.84-.01-3.54.12-5.09.75-9.07,4.2-17.49,9.92-23.77,5.77-6.36,13.75-10.48,23.53-10.9,2.51-3.67,6.73-6.09,11.53-6.09,7.69,0,13.94,6.24,13.94,13.95s-6.24,13.95-13.94,13.95c-5.31,0-9.93-2.97-12.29-7.34-5,.54-9.1,2.8-12.12,6.12-3.55,3.9-5.71,9.31-6.2,15.28-.11,1.3-.15,2.49-.12,3.56.21,7.59,2.67,12.07,5.31,16.9,1.9,3.46,3.89,7.07,5.58,12.09,1.68,5,2.63,9.99,2.67,14.68.04,5.41-1.16,10.42-3.85,14.67-2.79,4.41-7.04,7.83-12.98,9.84-1.97.66-4.14,1.17-6.51,1.49,29.71,18.48,59.64-18.23,47.52-41.98-.44.04-.89.06-1.35.06-7.71,0-13.94-6.24-13.94-13.95s6.24-13.95,13.94-13.95,13.94,6.24,13.94,13.95c0,1.83-.35,3.57-.99,5.16,8.13,13.49,6.42,30.8-1.51,44.84-3.3,5.85-7.67,11.16-12.85,15.37.19,7.8-1.84,15.92-5.65,23.46,5.14-.9,10.03-2.45,14.49-4.6,6.91-3.3,12.8-8.05,16.97-14.09-1.19-2.05-1.87-4.44-1.87-6.99,0-7.7,6.24-13.95,13.95-13.95s13.94,6.24,13.94,13.95-5.95,13.64-13.39,13.94c-5.69,8.76-13.83,15.51-23.41,20.11-9.49,4.55-20.38,6.94-31.63,6.95-2.74,2.83-5.78,5.41-9.04,7.65-7.26,5-15.68,8.35-24.68,9.1-17.17,1.46-36.23-6.36-53.11-29.97-17.05,23.77-36.53,31.46-54.13,29.81-9.19-.87-17.75-4.29-25.14-9.33-3.15-2.15-6.08-4.6-8.77-7.26-11.34.03-22.32-2.37-31.87-6.95-9.58-4.6-17.72-11.35-23.41-20.11-7.44-.3-13.39-6.42-13.39-13.94s6.25-13.95,13.95-13.95,13.94,6.24,13.94,13.95c0,2.55-.68,4.94-1.86,6.99,4.17,6.04,10.07,10.79,16.97,14.09,4.38,2.12,9.19,3.65,14.24,4.55-3.79-7.18-5.99-14.89-6.14-22.35-5.77-4.37-10.62-10.08-14.22-16.44-7.93-14.04-9.62-31.34-1.49-44.84-.64-1.59-.99-3.34-.99-5.16,0-7.7,6.24-13.95,13.94-13.95s13.94,6.24,13.94,13.95-6.25,13.95-13.94,13.95c-.46,0-.9-.02-1.35-.06-12.21,23.92,17.88,60.53,47.61,41.92-1.15-.19-2.26-.41-3.3-.7-7.27-1.95-12.28-6.05-15.48-11.17-3.06-4.89-4.33-10.58-4.29-16.05.02-3.16.44-6.21,1.18-8.97,1.53-5.74,3.88-10.05,6.18-14.3,1.72-3.14,3.4-6.26,4.44-9.78,1.21-4.08,1.61-8.25,1.27-12.21-.41-5.04-2.01-9.68-4.64-13.35-2.47-3.46-5.88-6.08-10.08-7.33-1.14-.33-2.33-.57-3.61-.7-2.36,4.36-6.98,7.33-12.28,7.33-7.71,0-13.95-6.24-13.95-13.95s6.24-13.95,13.95-13.95c4.78,0,8.99,2.4,11.5,6.07,2.96.13,5.78.61,8.43,1.4,7.45,2.2,13.45,6.78,17.74,12.79,4.15,5.81,6.66,12.93,7.3,20.51.47,5.65-.11,11.59-1.85,17.46-1.46,4.92-3.53,8.73-5.62,12.59-1.86,3.44-3.75,6.92-4.88,11.15-.47,1.7-.73,3.52-.74,5.3-.01,3,.59,6,2.09,8.39,1.36,2.17,3.62,3.94,7.03,4.86,1.68.45,3.57.7,5.7.71,1.55.01,3.02-.17,4.42-.5,3.84-.95,7.09-3.25,9.65-6.34,1.08-1.59,2.16-3.26,3.24-5.01,2.08-4.12,3.22-8.79,3.37-13.33.17-6.01-.61-5.21-4.06-9.59Z"/></clipPath><linearGradient id="linear-gradient" x1="188.12" y1="313.36" x2="405.06" y2="160.18" gradientUnits="userSpaceOnUse"><stop offset="0" stop-color="#d33293"/><stop offset="1" stop-color="#5354a4"/></linearGradient></defs><rect class="cls-5" x="0" width="609.11" height="600.43"/><g class="cls-2"><rect class="cls-4" x="148.56" y="121.13" width="311.98" height="220.03"/></g><path class="cls-1" d="m267.35,372.95h-19.18c-1.86,0-2.5.64-2.5,2.5v5.17h21.2v6.92h-21.2v5.7c0,1.86.64,2.5,2.5,2.5h19.39v7.24h-25.84c-3.46,0-5.65-1.7-5.65-5.7v-25.83c0-4,2.18-5.75,5.65-5.75h25.62v7.25Z"/><path class="cls-1" d="m277.68,402.99v-31.54c0-4,2.18-5.75,5.65-5.75h19.82c8.26,0,10.07,5.17,10.07,12.62s-1.81,12.73-10.07,12.73h-15.87v11.93h-9.59Zm20.51-19.39c4,0,5.22-1.54,5.22-5.27s-1.23-5.17-5.22-5.17h-8.42c-1.86,0-2.5.64-2.5,2.5v7.94h10.92Z"/><path class="cls-1" d="m323.06,402.99v-37.29h9.59v37.29h-9.59Z"/><path class="cls-1" d="m358.81,402.99c-12.52,0-16.03-6.92-16.03-18.64s3.52-18.64,16.03-18.64h15.39v7.46h-10.65c-8.52,0-10.97,2.13-10.97,11.19s2.45,11.19,10.97,11.19h11.19v7.46h-15.93Z"/><path class="cls-1" d="m149.51,436.31v-16.44c0-2.08,1.14-3,2.94-3h10.33c4.3,0,5.25,2.69,5.25,6.58s-.94,6.64-5.25,6.64h-8.28v6.22h-5Zm10.69-10.11c2.08,0,2.72-.81,2.72-2.75s-.64-2.69-2.72-2.69h-4.39c-.97,0-1.31.33-1.31,1.31v4.14h5.69Z"/><path class="cls-1" d="m173.89,418.92c.64-1.53,1.44-2.28,3.83-2.28,1.75,0,3.03.39,3.8,2.28l7.28,17.38h-5.25l-1.75-4.44h-8.19l-1.75,4.44h-5.22l7.25-17.38Zm.94,9.16h5.75l-2.47-6.17c-.11-.3-.19-.61-.39-.61s-.31.31-.42.61l-2.47,6.17Z"/><path class="cls-1" d="m189.77,419.87c0-2.08,1.14-3,2.94-3h10.39c4.03,0,5.19,2.36,5.19,6.39,0,3.39-.83,6.69-4.42,6.69h-1.39v.14l6.19,6.22h-6.14l-4.39-5.05c-.72-.8-1.75-1.67-1.75-2.75v-.44c0-1.42,1.06-1.75,2.86-1.75h1.64c1.86,0,2.28-.94,2.28-2.89s-.58-2.67-2.47-2.67h-4.64c-.97,0-1.31.33-1.31,1.31v14.25h-5v-16.44Z"/><path class="cls-1" d="m211.04,416.87h5v19.44h-5v-19.44Zm13.89,19.44l-7-7.47c-.69-.75-.94-1.58-.94-2.5,0-.75.31-1.61.78-2.17l6.3-7.3h6l-7.58,8c-.39.39-.75.83-.75,1.42s.36,1.06.97,1.67l8.36,8.36h-6.14Z"/><path class="cls-1" d="m243.11,418.7c.39-1.39,1.53-2.06,3.14-2.06,1.5,0,2.72.61,3.14,2.06l3.25,11.64c.06.17.22.47.36.47.17,0,.31-.22.42-.58l3.53-13.36h5.05l-4.72,16.3c-.69,2.44-1.58,3.36-3.94,3.36-2.58,0-3.33-1.19-3.8-2.92l-2.94-10.53c-.08-.25-.17-.5-.33-.5s-.25.25-.33.5l-2.94,10.53c-.47,1.72-1.22,2.92-3.8,2.92-2.33,0-3.28-.94-3.97-3.36l-4.69-16.3h5.05l3.53,13.36c.08.36.19.58.39.58.17,0,.31-.3.36-.47l3.28-11.64Z"/><path class="cls-1" d="m263.24,436.31v-19.44h5v19.44h-5Z"/><path class="cls-1" d="m274.24,436.31c-1.81,0-2.94-.89-2.94-2.97v-13.47c0-2.08,1.14-3,2.94-3h7.8c6.5,0,7.94,4.03,7.94,9.72s-1.44,9.72-7.69,9.72h-8.05Zm2.06-5.28c0,1.06.33,1.39,1.39,1.39h1.14c4.44,0,6.05-1.11,6.05-5.83s-1.61-5.83-6.05-5.83h-1.14c-1.06,0-1.39.33-1.39,1.39v8.89Z"/><path class="cls-1" d="m308.78,420.64h-10c-.97,0-1.31.33-1.31,1.31v2.69h11.05v3.61h-11.05v2.97c0,.97.33,1.3,1.31,1.3h10.11v3.78h-13.47c-1.81,0-2.94-.89-2.94-2.97v-13.47c0-2.08,1.14-3,2.94-3h13.36v3.78Z"/><path class="cls-1" d="m317.38,432.42h10.77c1.33,0,1.39-.86,1.39-1.33,0-.67-.33-1.22-1.5-1.58l-7.61-2.28c-2.53-.75-3.28-2.72-3.28-5.44,0-2.92,1.28-4.92,4.5-4.92h12v3.89h-10.05c-.72,0-1.36.28-1.36,1.28,0,.75.39,1.28,1.56,1.64l6.83,2c2.89.83,4.03,2.28,4.03,5.47s-1.14,5.17-4.44,5.17h-12.83v-3.89Z"/><path class="cls-1" d="m350.84,416.87h5.33l-8.33,13.77v5.67h-4.97v-5.67l-8.3-13.77h5.33l5.47,9.3,5.47-9.3Z"/><path class="cls-1" d="m356.86,432.42h10.77c1.33,0,1.39-.86,1.39-1.33,0-.67-.33-1.22-1.5-1.58l-7.61-2.28c-2.53-.75-3.28-2.72-3.28-5.44,0-2.92,1.28-4.92,4.5-4.92h12v3.89h-10.05c-.72,0-1.36.28-1.36,1.28,0,.75.39,1.28,1.56,1.64l6.83,2c2.89.83,4.03,2.28,4.03,5.47s-1.14,5.17-4.44,5.17h-12.83v-3.89Z"/><path class="cls-1" d="m382.19,436.31v-15.55h-7.22v-3.89h19.44v3.89h-7.22v15.55h-5Z"/><path class="cls-1" d="m412.23,420.64h-10c-.97,0-1.3.33-1.3,1.31v2.69h11.05v3.61h-11.05v2.97c0,.97.33,1.3,1.3,1.3h10.11v3.78h-13.47c-1.8,0-2.94-.89-2.94-2.97v-13.47c0-2.08,1.14-3,2.94-3h13.36v3.78Z"/><path class="cls-1" d="m430.89,434.06c-.53,1.47-1.06,2.47-3.25,2.47s-2.75-1-3.28-2.47l-3.97-11.16c-.11-.31-.25-.67-.42-.67-.28,0-.28.47-.28.61l.14,13.47h-5v-16.66c0-2.61,2.47-3,3.94-3,1.94,0,3.44.69,4.22,2.86l4.08,11.22c.11.33.33.81.56.81s.44-.47.55-.81l4.08-11.22c.78-2.17,2.28-2.86,4.19-2.86,3.19,0,3.97,1.5,3.97,3v16.66h-5l.17-13.47c0-.39-.14-.61-.31-.61-.14,0-.28.28-.42.67l-4,11.16Z"/><path class="cls-1" d="m443.02,432.42h10.77c1.33,0,1.39-.86,1.39-1.33,0-.67-.33-1.22-1.5-1.58l-7.61-2.28c-2.53-.75-3.28-2.72-3.28-5.44,0-2.92,1.28-4.92,4.5-4.92h12v3.89h-10.05c-.72,0-1.36.28-1.36,1.28,0,.75.39,1.28,1.56,1.64l6.83,2c2.89.83,4.03,2.28,4.03,5.47s-1.14,5.17-4.44,5.17h-12.83v-3.89Z"/></svg>